<svg version="1.1" xmlns="http://www.w3.org/2000/svg" xmlns:xlink="http://www.w3.org/1999/xlink" x="0px" y="0px" width="991px" height="182.61px" viewBox="0 0 991 182.61" style="enable-background:new 0 0 991 182.61;" xml:space="preserve">
        <style type="text/css">
            .st0 {
                fill: #FF9600;
            }

          
        </style>
        <defs>
        </defs>
        <g>
            <path class="st0" d="M88.36,182.61c-5.69-0.2-10.97-0.81-16.25-2.03v-84.7L23.56,123.9c5.08,10.56,12.59,19.7,21.73,26.81
   l-11.58,11.58C13.2,145.43,0,119.84,0,91.4C0,47.53,30.87,10.77,72.11,2.03C77.39,0.81,82.67,0.2,88.36,0L88.36,182.61z
    M72.11,18.69C40.01,27.22,16.25,56.47,16.25,91.4c0,5.69,0.61,11.37,1.83,16.86l54.03-31.08V18.69z M99.4,0
   c5.69,0.2,10.97,0.81,16.25,2.03v105.62l54.44-31.48c-3.25-15.44-11.17-29.25-22.34-39.61l11.58-11.58
   c17.47,16.66,28.44,40.22,28.44,66.42c0,28.44-13.2,54.03-33.72,70.89l-11.58-11.58c17.06-13.2,28.23-33.51,29.05-56.47
   l-55.86,32.09v54.23c-5.28,1.22-10.56,1.83-16.25,2.03L99.4,0z"></path>
        </g>
        
        
    </svg>