<svg version="1.1" xmlns="http://www.w3.org/2000/svg" xmlns:xlink="http://www.w3.org/1999/xlink" x="0px" y="0px" width="991px" height="182.61px" viewBox="0 0 991 182.61" style="enable-background:new 0 0 991 182.61;" xml:space="preserve">
        <style type="text/css">
            .st0 {
                fill: #FF9600;
            }

            .st1 {
                fill: #FF9600;
                stroke: #FF9600;
                stroke-width: 2;
                stroke-miterlimit: 10;
            }

            .st2 {
                fill: #FFFFFF;
            }
        </style>
        <defs>
        </defs>
        <g>
            <path class="st0" d="M88.36,182.61c-5.69-0.2-10.97-0.81-16.25-2.03v-84.7L23.56,123.9c5.08,10.56,12.59,19.7,21.73,26.81
   l-11.58,11.58C13.2,145.43,0,119.84,0,91.4C0,47.53,30.87,10.77,72.11,2.03C77.39,0.81,82.67,0.2,88.36,0L88.36,182.61z
    M72.11,18.69C40.01,27.22,16.25,56.47,16.25,91.4c0,5.69,0.61,11.37,1.83,16.86l54.03-31.08V18.69z M99.4,0
   c5.69,0.2,10.97,0.81,16.25,2.03v105.62l54.44-31.48c-3.25-15.44-11.17-29.25-22.34-39.61l11.58-11.58
   c17.47,16.66,28.44,40.22,28.44,66.42c0,28.44-13.2,54.03-33.72,70.89l-11.58-11.58c17.06-13.2,28.23-33.51,29.05-56.47
   l-55.86,32.09v54.23c-5.28,1.22-10.56,1.83-16.25,2.03L99.4,0z"></path>
        </g>
        <g>
            <g>
                <path class="st1" d="M221.13,96.58h3.85c1.99-7.58,5.22-21.26,8.45-35.06h19.89l8.45,35.06h3.73L244.51,9.55h-2.36
       c-1.49,7.46-12.93,52.72-18.4,76.09L221.13,96.58z M234.44,57.79c2.36-9.57,4.6-18.65,6.22-25.61l2.74-11.44l2.74,11.19
       c1.62,6.96,3.98,15.92,6.34,25.86H234.44z"></path>
                <path class="st1" d="M283.52,96.46h3.73V18.37l17.03,39.42l0.99-2.11c2.98-6.34,12.19-26.11,12.19-26.36l5.72-12.31v79.45h3.73
       V9.55h-3.73l-18.65,40.91c-3.11-7.46-5.97-14.17-8.58-20.14c-4.35-9.95-8.45-20.39-8.83-20.76h-3.61L283.52,96.46z M331.14,18.87
       c6.09-3.85,13.18-5.84,21.01-5.84c22.01,0,40.04,18.03,40.04,40.04c0,22.38-18.53,40.04-40.04,40.04
       c-7.96,0-14.92-2.11-21.01-5.97v4.35c6.34,3.61,13.3,5.35,21.01,5.35c24.25,0,43.77-19.52,43.77-43.77S376.4,9.3,352.15,9.3
       c-7.96,0-14.67,1.87-21.01,5.22V18.87z"></path>
                <path class="st1" d="M415.13,9.27l-1.22,87.03l3.73,0.05l0.58-41.65l7.34,0.1l23.53,41.99l4.35,0.06l-23.78-42.36
       c10.09-1.47,19.99-6.93,20.2-21.85c0.26-18.28-11.61-23.04-25.17-23.23L415.13,9.27z M418.81,13.06l5.84,0.08
       c9.95,0.14,21.71,3.91,21.49,19.45c-0.18,13.05-8.97,18.65-22.02,18.47l-5.84-0.08L418.81,13.06z"></path>
                <path class="st1" d="M471.44,9.36l0.12,87.41h34.57v-3.73h-30.96V49.15h22.63v-3.73h-22.63V13.09h30.96V9.36H471.44z"></path>
            </g>
            <g>
                <path class="st1" d="M569.71,69.29c6.34,15.67,22.13,27.6,40.04,27.6c0.25,0,0.37,0,0.62,0c24.25,0,43.77-19.52,43.77-43.89
       c0-24.25-19.52-43.77-43.77-43.77c-23.75,0-42.77,18.65-43.77,41.78V53c0,0.37,0,0.75,0,1.12
       C566.6,59.34,567.59,64.44,569.71,69.29z M570.33,51.01c0.99-20.76,18.28-38.05,40.04-38.05c22.01,0,40.04,18.15,40.04,40.04
       c0,22.51-18.53,40.16-40.04,40.16c-17.41,0-31.46-10.82-37.43-25.86c-1.74-4.6-2.61-9.33-2.61-14.42V51.01z M552.17,96.89V54.74
       h11.19v-2.74c0-0.37,0-0.75,0.12-0.99h-11.31V9.86h-3.73v87.04L552.17,96.89z M573.19,51.01v3.73h13.55v27.6h3.73V23.91h-3.73
       v27.11H573.19z"></path>
                <path class="st1" d="M675.85,92.85V9.55h-3.73v87.04h34.69v-3.73H675.85z"></path>
                <path class="st1" d="M728.54,96.58V9.55h-3.73v87.04H728.54z"></path>
                <path class="st1" d="M746.53,9.24v87.66h12.43c24.37,0,43.77-19.89,43.77-43.77c0-24.37-19.52-43.89-43.77-43.89H746.53z
        M758.96,12.97c22.01,0,40.04,18.15,40.04,40.16c0,22.38-18.15,40.04-40.04,40.04h-8.7v-80.2H758.96z"></path>
                <path class="st1" d="M820.72,96.58h3.85c1.99-7.58,5.22-21.26,8.45-35.06h19.89l8.45,35.06h3.73L844.1,9.55h-2.36
       c-1.49,7.46-12.93,52.72-18.4,76.09L820.72,96.58z M834.03,57.79c2.36-9.57,4.6-18.65,6.22-25.61l2.74-11.44l2.74,11.19
       c1.62,6.96,3.98,15.92,6.34,25.86H834.03z"></path>
                <path class="st1" d="M898.4,58.16v38.42h3.73V58.16l15.29-48.62h-3.85l-13.3,40.78l-13.3-40.78h-3.85L898.4,58.16z"></path>
                <path class="st1" d="M937.28,79.92c4.35,9.82,15.04,17.03,25.86,17.03c0.25,0,0.37,0,0.62,0c4.72,0,9.2-1.24,13.43-3.61
       c4.48-2.11,7.96-6.47,10.07-10.69c1.99-4.23,2.74-7.58,2.74-9.45c0-0.25-0.12-0.62-0.12-0.87c0-1.37-0.12-2.74-0.37-4.1
       c-1.99-10.07-11.69-17.41-21.26-20.02c-5.35-1.49-11.31-1.74-16.16-4.6c-4.97-2.98-7.71-8.21-8.08-11.31
       c-0.12-1.62-0.25-2.61-0.25-3.11c0-4.1,1.62-9.2,6.47-13.18c2.86-2.36,6.47-3.48,11.07-3.48c7.96,0,16.54,4.35,16.91,13.3
       l3.73,0.37c0-9.82-8.58-15.79-17.53-16.79c-1.37-0.12-2.49-0.25-3.85-0.25c-6.47,0-13.06,2.74-17.03,8.21s-3.73,10.07-3.73,11.56
       c0,7.58,4.72,18.28,20.14,21.26c11.81,1.99,23.25,6.59,25.61,18.53c0.25,1.37,0.37,2.74,0.37,3.98c0,3.98-1.37,9.08-5.84,13.55
       c-4.35,4.48-10.69,7.21-17.16,7.21c-3.36,0-6.59-0.75-9.7-2.24c-9.45-4.1-14.05-15.04-14.05-20.27c0-0.37,0-0.75,0-1.12v-1.12
       c0-0.37,0-0.75,0.12-1.12l-3.73-0.25c-0.12,0.37-0.12,0.87-0.12,1.37v1.37c0,0.5,0,0.99,0,1.37
       C935.42,74.33,936.04,77.19,937.28,79.92L937.28,79.92z"></path>
            </g>
        </g>
        <g>
            <path class="st2" d="M221.13,141.22h23.16v7.24h-7.79v24.34h-7.49v-24.34h-7.87V141.22z"></path>
            <path class="st2" d="M282.09,140.75c0.08,0,0.16,0.01,0.23,0.02c0.07,0.01,0.16,0.02,0.28,0.02h0.17c0.14,0,0.34,0.02,0.59,0.06
   c0.25,0.04,0.52,0.09,0.78,0.15c0.27,0.06,0.52,0.11,0.76,0.17c0.24,0.06,0.4,0.1,0.49,0.13h-0.04c1.67,0.42,3.14,1.13,4.42,2.12
   c1.28,0.99,2.36,2.17,3.24,3.56c0.87,1.38,1.54,2.93,1.99,4.64c0.45,1.71,0.68,3.49,0.68,5.36c0,2.2-0.31,4.29-0.93,6.27
   c-0.62,1.98-1.53,3.7-2.73,5.19s-2.67,2.65-4.4,3.51c-1.74,0.86-3.72,1.29-5.95,1.29c-2.23,0-4.21-0.43-5.95-1.29
   c-1.74-0.86-3.2-2.03-4.38-3.51c-1.19-1.48-2.09-3.21-2.71-5.19c-0.62-1.98-0.93-4.06-0.93-6.27c0-2.2,0.31-4.29,0.93-6.27
   c0.62-1.98,1.52-3.7,2.71-5.16c1.19-1.47,2.65-2.63,4.38-3.49c1.74-0.86,3.72-1.29,5.95-1.29H282.09z M281.66,147.99
   c-1.1,0-2.06,0.27-2.88,0.8c-0.82,0.54-1.49,1.23-2.01,2.1c-0.52,0.86-0.92,1.83-1.19,2.9c-0.27,1.07-0.4,2.13-0.4,3.18
   c0,0.96,0.12,1.97,0.36,3.03c0.24,1.06,0.61,2.03,1.12,2.92c0.51,0.89,1.17,1.62,1.99,2.2s1.82,0.87,3.01,0.87
   c1.19,0,2.19-0.29,3.03-0.87s1.51-1.31,2.03-2.2c0.52-0.89,0.9-1.86,1.12-2.92c0.23-1.06,0.34-2.07,0.34-3.03s-0.12-1.96-0.36-3.01
   c-0.24-1.04-0.61-2.01-1.12-2.9c-0.51-0.89-1.18-1.62-2.01-2.2C283.86,148.28,282.85,147.99,281.66,147.99L281.66,147.99z"></path>
            <path class="st2" d="M335.67,166.02c0.96,0.08,1.71-0.01,2.24-0.3c0.54-0.28,0.94-0.68,1.21-1.21c0.27-0.52,0.44-1.14,0.51-1.86
   c0.07-0.72,0.12-1.47,0.15-2.26v-19.18h7.49v19.18c0,1.83-0.25,3.53-0.74,5.1s-1.23,2.92-2.22,4.06s-2.25,2.04-3.79,2.69
   c-1.54,0.65-3.34,0.97-5.4,0.97h-0.85c-0.11,0-0.3-0.01-0.57-0.04c-0.27-0.03-0.55-0.06-0.85-0.11c-0.3-0.04-0.56-0.08-0.8-0.13
   c-0.24-0.04-0.36-0.06-0.36-0.06c-1.5-0.37-2.8-0.94-3.92-1.71c-1.11-0.78-2.03-1.71-2.75-2.79s-1.26-2.31-1.61-3.66
   s-0.53-2.79-0.53-4.32v-19.18h7.49v19.18c-0.03,1.95,0.4,3.41,1.27,4.4C332.52,165.78,333.86,166.19,335.67,166.02L335.67,166.02z"></path>
            <path class="st2" d="M387.42,141.22c2.03,0,3.77,0.29,5.21,0.87c1.44,0.58,2.62,1.35,3.53,2.33c0.92,0.97,1.59,2.1,2.03,3.39
   c0.44,1.28,0.66,2.63,0.66,4.04c0,2-0.39,3.8-1.16,5.4c-0.78,1.59-1.91,2.87-3.41,3.83c0.65,0.9,1.35,1.86,2.1,2.86
   c0.75,1,1.5,2.02,2.26,3.05c0.76,1.03,1.5,2.04,2.22,3.03c0.72,0.99,1.4,1.92,2.05,2.79h-9.06l-7.24-10.08h-2.88v10.08h-7.49
   v-31.58L387.42,141.22z M383.74,148.46v6.99h3.94c0.71,0,1.3-0.09,1.78-0.28c0.48-0.18,0.86-0.44,1.14-0.76
   c0.28-0.32,0.48-0.71,0.59-1.14c0.11-0.44,0.17-0.91,0.17-1.42c0-1.07-0.3-1.91-0.89-2.5c-0.59-0.59-1.43-0.89-2.5-0.89H383.74z"></path>
            <path class="st2" d="M435.28,163.31c0-0.03,0.01-0.06,0.02-0.08c0.01-0.03,0.02-0.08,0.02-0.17c0-0.17-0.06-0.36-0.17-0.57
   c-0.11-0.21-0.36-0.44-0.74-0.7c-0.38-0.25-0.92-0.51-1.63-0.76c-0.71-0.25-1.64-0.49-2.79-0.72c-2.65-0.51-4.74-1.63-6.27-3.37
   c-1.52-1.74-2.29-3.97-2.29-6.71c0-1.61,0.3-3.03,0.91-4.25c0.61-1.23,1.42-2.25,2.43-3.07s2.2-1.43,3.56-1.84
   c1.35-0.41,2.78-0.61,4.28-0.61c1.21,0,2.27,0.06,3.18,0.19c0.9,0.13,1.74,0.3,2.5,0.51c0.76,0.21,1.47,0.48,2.14,0.8
   c0.66,0.32,1.38,0.67,2.14,1.04l-2.54,7.03c-1.47-0.76-2.79-1.34-3.98-1.74s-2.31-0.59-3.39-0.59c-1.19,0-2.09,0.21-2.71,0.63
   c-0.62,0.42-0.96,1-1.02,1.74c0,0.06,0.01,0.11,0.02,0.15c0.01,0.04,0.02,0.09,0.02,0.15c0,0.08-0.01,0.19-0.02,0.32
   s-0.02,0.28-0.02,0.44c0,0.23,0.02,0.47,0.06,0.74c0.04,0.27,0.13,0.53,0.28,0.78c0.14,0.25,0.35,0.5,0.61,0.74
   c0.27,0.24,0.64,0.42,1.12,0.53h-0.04l1.78,0.34c0.99,0.2,2.07,0.45,3.24,0.76c1.17,0.31,2.26,0.8,3.28,1.46
   c1.02,0.66,1.86,1.56,2.54,2.69s1.02,2.62,1.02,4.49c0,1.61-0.32,3.02-0.95,4.23c-0.64,1.21-1.47,2.24-2.52,3.07
   c-1.04,0.83-2.24,1.45-3.6,1.86c-1.35,0.41-2.77,0.61-4.23,0.61c-1.21,0-2.27-0.06-3.18-0.19c-0.9-0.13-1.74-0.3-2.5-0.51
   c-0.76-0.21-1.47-0.47-2.14-0.78c-0.66-0.31-1.38-0.65-2.14-1.02l2.54-6.99c1.44,0.73,2.76,1.29,3.96,1.67s2.34,0.57,3.41,0.57
   c1.27,0,2.21-0.22,2.82-0.66c0.61-0.44,0.91-1.07,0.91-1.88L435.28,163.31z"></path>
            <path class="st2" d="M526.16,172.8h-7.92l-2.71-7.45h-8.76l-2.79,7.45h-7.87c0.68-1.81,1.28-3.44,1.82-4.89
   c0.54-1.45,1.06-2.86,1.57-4.23c0.51-1.37,1.02-2.77,1.55-4.19c0.52-1.43,1.09-3.01,1.71-4.74c0.62-1.74,1.33-3.7,2.12-5.88
   c0.79-2.19,1.71-4.73,2.75-7.64h6.99L526.16,172.8z M509.31,158.11h3.64c-0.17-0.45-0.32-0.86-0.47-1.23
   c-0.14-0.37-0.28-0.73-0.4-1.08c-0.13-0.35-0.27-0.74-0.42-1.16c-0.16-0.42-0.33-0.92-0.53-1.48L509.31,158.11z"></path>
            <path class="st2" d="M551.32,141.22h7.7l10.33,17.57v-17.57h7.49v31.58h-7.79l-10.2-17.27c0,2.88-0.01,5.78-0.02,8.7
   c-0.01,2.92-0.02,5.78-0.02,8.57h-7.49L551.32,141.22z"></path>
            <path class="st2" d="M605.68,141.22h10.24c2.14,0,4.09,0.35,5.84,1.04c1.75,0.69,3.25,1.71,4.49,3.05c1.24,1.34,2.2,2.98,2.88,4.93
   s1.02,4.19,1.02,6.73c0,2.37-0.35,4.53-1.04,6.48c-0.69,1.95-1.67,3.61-2.94,5c-1.27,1.38-2.79,2.46-4.57,3.22
   c-1.78,0.76-3.75,1.14-5.93,1.14h-9.99L605.68,141.22z M613.17,148.46v17.1h2.75c1.02,0,1.94-0.2,2.77-0.61s1.55-0.99,2.14-1.74
   c0.59-0.75,1.04-1.65,1.35-2.71c0.31-1.06,0.47-2.24,0.47-3.53c0-2.74-0.59-4.84-1.76-6.31c-1.17-1.47-2.83-2.2-4.97-2.2
   L613.17,148.46z"></path>
            <path class="st2" d="M686.09,141.22h23.16v7.24h-7.79v24.34h-7.49v-24.34h-7.87V141.22z"></path>
            <path class="st2" d="M745.65,141.22c2.03,0,3.77,0.29,5.21,0.87s2.62,1.35,3.53,2.33c0.92,0.97,1.59,2.1,2.03,3.39
   c0.44,1.28,0.66,2.63,0.66,4.04c0,2-0.39,3.8-1.16,5.4c-0.78,1.59-1.91,2.87-3.41,3.83c0.65,0.9,1.35,1.86,2.1,2.86
   s1.5,2.02,2.26,3.05c0.76,1.03,1.5,2.04,2.22,3.03c0.72,0.99,1.4,1.92,2.05,2.79h-9.06l-7.24-10.08h-2.88v10.08h-7.49v-31.58
   L745.65,141.22z M741.97,148.46v6.99h3.94c0.71,0,1.3-0.09,1.78-0.28c0.48-0.18,0.86-0.44,1.14-0.76s0.48-0.71,0.59-1.14
   c0.11-0.44,0.17-0.91,0.17-1.42c0-1.07-0.3-1.91-0.89-2.5c-0.59-0.59-1.43-0.89-2.5-0.89H741.97z"></path>
            <path class="st2" d="M809.97,172.8h-7.92l-2.71-7.45h-8.76l-2.79,7.45h-7.87c0.68-1.81,1.28-3.44,1.82-4.89
   c0.54-1.45,1.06-2.86,1.57-4.23c0.51-1.37,1.02-2.77,1.55-4.19c0.52-1.43,1.09-3.01,1.71-4.74c0.62-1.74,1.33-3.7,2.12-5.88
   c0.79-2.19,1.71-4.73,2.75-7.64h6.99L809.97,172.8z M793.12,158.11h3.64c-0.17-0.45-0.32-0.86-0.47-1.23
   c-0.14-0.37-0.28-0.73-0.4-1.08c-0.13-0.35-0.27-0.74-0.42-1.16s-0.33-0.92-0.53-1.48L793.12,158.11z"></path>
            <path class="st2" d="M831.26,141.22h7.92l6.69,18.75l6.69-18.75h7.96l-11.35,31.58h-6.52L831.26,141.22z"></path>
            <path class="st2" d="M892.19,159.89v5.67h12.62v7.24H884.7v-31.58h19.85v7.24h-12.36v4.19h11.9v7.24L892.19,159.89z"></path>
            <path class="st2" d="M930.26,141.22h7.49v24.34h10.67v7.24h-18.16L930.26,141.22z"></path>
            <path class="st2" d="M982.46,163.31c0-0.03,0.01-0.06,0.02-0.08c0.01-0.03,0.02-0.08,0.02-0.17c0-0.17-0.06-0.36-0.17-0.57
   c-0.11-0.21-0.36-0.44-0.74-0.7c-0.38-0.25-0.92-0.51-1.63-0.76c-0.71-0.25-1.64-0.49-2.79-0.72c-2.65-0.51-4.74-1.63-6.27-3.37
   c-1.52-1.74-2.29-3.97-2.29-6.71c0-1.61,0.3-3.03,0.91-4.25c0.61-1.23,1.42-2.25,2.43-3.07c1.02-0.82,2.2-1.43,3.56-1.84
   c1.35-0.41,2.78-0.61,4.28-0.61c1.21,0,2.27,0.06,3.18,0.19c0.9,0.13,1.74,0.3,2.5,0.51c0.76,0.21,1.47,0.48,2.14,0.8
   c0.66,0.32,1.38,0.67,2.14,1.04l-2.54,7.03c-1.47-0.76-2.79-1.34-3.98-1.74c-1.19-0.4-2.31-0.59-3.39-0.59
   c-1.19,0-2.09,0.21-2.71,0.63c-0.62,0.42-0.96,1-1.02,1.74c0,0.06,0.01,0.11,0.02,0.15c0.01,0.04,0.02,0.09,0.02,0.15
   c0,0.08-0.01,0.19-0.02,0.32c-0.01,0.13-0.02,0.28-0.02,0.44c0,0.23,0.02,0.47,0.06,0.74c0.04,0.27,0.13,0.53,0.28,0.78
   c0.14,0.25,0.35,0.5,0.61,0.74s0.64,0.42,1.12,0.53h-0.04l1.78,0.34c0.99,0.2,2.07,0.45,3.24,0.76c1.17,0.31,2.26,0.8,3.28,1.46
   s1.86,1.56,2.54,2.69s1.02,2.62,1.02,4.49c0,1.61-0.32,3.02-0.95,4.23c-0.64,1.21-1.47,2.24-2.52,3.07
   c-1.04,0.83-2.24,1.45-3.6,1.86c-1.35,0.41-2.77,0.61-4.23,0.61c-1.21,0-2.27-0.06-3.18-0.19c-0.9-0.13-1.74-0.3-2.5-0.51
   c-0.76-0.21-1.47-0.47-2.14-0.78c-0.66-0.31-1.38-0.65-2.14-1.02l2.54-6.99c1.44,0.73,2.76,1.29,3.96,1.67s2.34,0.57,3.41,0.57
   c1.27,0,2.21-0.22,2.82-0.66c0.61-0.44,0.91-1.07,0.91-1.88L982.46,163.31z"></path>
        </g>
    </svg>