<?xml version="1.0" standalone="no"?>
<!DOCTYPE svg PUBLIC "-//W3C//DTD SVG 20010904//EN"
 "http://www.w3.org/TR/2001/REC-SVG-20010904/DTD/svg10.dtd">
<svg version="1.0" xmlns="http://www.w3.org/2000/svg"
 width="2084.000000pt" height="2084.000000pt" viewBox="0 0 2084.000000 2084.000000"
 preserveAspectRatio="xMidYMid meet">
<metadata>
Created by potrace 1.14, written by Peter Selinger 2001-2017
</metadata>
<g transform="translate(0.000000,2084.000000) scale(0.100000,-0.100000)"
fill="#000000" stroke="none">
<path d="M11010 20381 c-14 -5 -15 -1045 -16 -9811 0 -5936 4 -9808 10 -9811
5 -4 20 -5 35 -3 14 1 82 6 151 9 221 11 404 23 445 31 11 2 53 7 94 10 42 3
82 7 91 9 8 1 44 6 80 10 36 4 73 9 84 11 10 2 44 6 75 10 31 3 58 8 61 9 3 2
30 6 60 10 121 15 547 99 559 110 3 4 6 1315 6 2915 0 1600 2 2910 5 2913 7 6
155 91 465 269 149 86 331 190 405 233 74 43 151 87 170 97 19 11 109 63 200
116 91 52 181 104 200 115 19 11 96 54 170 97 199 114 194 112 340 195 74 43
149 86 167 96 17 10 132 76 255 147 123 70 234 135 248 142 14 8 41 24 60 36
19 11 105 61 190 109 168 96 596 341 620 356 16 9 246 141 295 169 57 32 240
138 275 159 19 11 42 24 50 28 8 4 67 37 130 73 188 110 512 296 555 320 38
21 176 101 220 127 11 6 36 20 55 31 44 24 210 119 230 132 8 5 42 24 75 43
33 18 177 101 320 184 143 82 270 155 282 161 20 11 21 10 18 -21 -2 -17 -7
-90 -10 -162 -11 -199 -19 -302 -30 -375 -2 -14 -7 -52 -10 -85 -4 -33 -9 -76
-11 -95 -3 -19 -6 -48 -8 -65 -5 -35 -34 -221 -40 -251 -2 -12 -7 -39 -10 -60
-40 -253 -185 -826 -281 -1109 -68 -203 -171 -474 -221 -583 -13 -29 -24 -55
-24 -57 0 -9 -93 -212 -161 -350 -192 -392 -388 -723 -644 -1090 -419 -601
-955 -1173 -1532 -1638 l-141 -114 623 -623 624 -624 58 49 c268 227 434 378
657 601 284 285 494 518 721 799 31 39 62 77 68 85 28 34 206 270 253 335 163
226 326 475 463 705 67 113 126 212 131 220 148 248 489 958 584 1217 7 21 33
88 56 148 66 171 146 404 201 585 53 172 128 438 136 479 2 14 6 28 8 31 2 4
7 22 10 41 3 19 15 68 25 109 11 41 21 86 24 100 2 14 9 45 15 70 5 25 12 59
15 75 3 17 8 41 11 55 3 14 7 36 10 50 3 14 7 34 9 45 2 11 7 40 12 65 4 25 8
47 9 50 3 11 15 87 21 124 3 21 7 46 9 55 9 50 19 115 30 206 3 22 9 72 15
110 5 39 12 93 14 120 3 28 8 77 11 110 3 33 8 74 10 90 2 17 6 80 10 140 4
61 9 126 11 145 16 166 22 789 10 1035 -13 254 -20 364 -31 465 -2 19 -6 67
-10 105 -3 39 -7 81 -10 95 -2 14 -7 52 -10 85 -3 33 -8 71 -10 85 -2 14 -6
48 -9 75 -4 28 -8 61 -11 75 -2 14 -7 42 -10 63 -11 76 -17 114 -35 222 -11
61 -22 125 -25 144 -3 19 -8 37 -10 40 -2 4 -6 27 -10 51 -22 150 -155 680
-235 940 -28 91 -53 172 -55 180 -4 19 -74 219 -113 325 -136 372 -275 692
-459 1059 -118 235 -198 380 -400 721 -45 75 -291 449 -350 530 -23 33 -51 71
-60 84 -41 56 -267 356 -272 361 -3 3 -44 52 -91 110 -46 58 -87 107 -90 110
-3 3 -46 52 -95 110 -199 231 -622 670 -646 670 -12 0 -1239 -1224 -1239
-1236 0 -4 78 -84 173 -178 637 -632 1136 -1321 1538 -2126 226 -454 405 -914
548 -1410 24 -86 97 -370 105 -414 2 -6 8 -37 15 -69 7 -32 11 -60 9 -62 -3
-3 -331 -194 -467 -271 -20 -11 -124 -71 -231 -133 -107 -63 -209 -121 -226
-131 -16 -10 -91 -53 -165 -95 -74 -43 -215 -125 -314 -182 -99 -56 -187 -107
-195 -112 -8 -6 -96 -57 -195 -114 -244 -141 -832 -481 -1040 -602 -93 -54
-188 -109 -210 -121 -22 -12 -90 -51 -152 -87 -62 -36 -132 -77 -155 -90 -24
-13 -95 -55 -158 -92 -63 -37 -133 -78 -155 -90 -45 -25 -248 -143 -373 -216
-45 -27 -85 -49 -88 -49 -2 0 -23 -11 -45 -26 -22 -14 -55 -33 -72 -43 -18
-10 -160 -92 -317 -183 -157 -91 -387 -224 -512 -296 -197 -114 -599 -346
-723 -419 -22 -12 -42 -23 -45 -23 -3 0 -5 2553 -5 5672 l0 5673 -55 12 c-30
7 -68 15 -85 18 -16 4 -50 11 -75 16 -25 6 -56 12 -70 14 -14 2 -50 8 -80 14
-30 6 -71 13 -90 16 -19 3 -42 8 -50 10 -8 2 -35 6 -60 9 -25 3 -54 8 -66 10
-12 2 -45 7 -75 11 -30 3 -65 8 -79 10 -55 8 -189 24 -255 30 -38 3 -86 8
-105 10 -91 10 -215 19 -435 30 -71 4 -132 8 -135 10 -3 1 -12 0 -20 -4z"/>
<path d="M9557 20373 c-1 -1 -45 -4 -97 -7 -52 -4 -115 -8 -140 -11 -25 -2
-74 -6 -109 -9 -82 -7 -168 -15 -206 -21 -16 -2 -52 -7 -80 -10 -27 -3 -84
-10 -125 -16 -136 -19 -174 -25 -285 -44 -49 -9 -112 -20 -140 -25 -27 -5 -61
-12 -75 -15 -14 -3 -38 -8 -55 -11 -16 -2 -68 -14 -115 -24 -47 -11 -96 -22
-110 -24 -48 -9 -316 -74 -435 -106 -66 -17 -127 -33 -135 -35 -160 -38 -797
-256 -995 -340 -16 -7 -86 -36 -155 -65 -425 -178 -823 -381 -1250 -638 -140
-84 -488 -313 -595 -391 -38 -28 -81 -59 -95 -69 -14 -9 -54 -39 -90 -65 -36
-27 -76 -56 -89 -65 -13 -9 -28 -22 -35 -27 -6 -6 -65 -53 -131 -105 -147
-117 -385 -320 -525 -449 -134 -123 -471 -460 -575 -575 -44 -49 -89 -98 -101
-110 -37 -37 -262 -304 -358 -424 -124 -156 -302 -397 -412 -557 -153 -222
-404 -623 -404 -644 0 -6 -4 -11 -10 -11 -5 0 -10 -4 -10 -9 0 -6 -17 -38 -37
-73 -97 -164 -317 -600 -421 -835 -181 -408 -341 -846 -461 -1260 -63 -216
-146 -546 -167 -663 -3 -14 -18 -88 -34 -165 -15 -77 -31 -153 -33 -170 -3
-16 -10 -61 -17 -100 -6 -38 -13 -81 -15 -95 -11 -66 -14 -88 -20 -130 -3 -25
-8 -56 -10 -70 -9 -66 -15 -110 -20 -160 -4 -30 -8 -66 -10 -80 -2 -14 -6 -54
-10 -90 -3 -36 -8 -81 -10 -100 -2 -19 -7 -73 -10 -120 -3 -47 -8 -110 -10
-140 -25 -318 -25 -1063 0 -1320 2 -25 7 -85 10 -135 4 -49 9 -106 11 -125 2
-19 6 -60 9 -90 8 -84 15 -142 20 -170 2 -14 7 -50 10 -81 3 -31 7 -65 9 -75
2 -11 7 -41 10 -69 4 -27 8 -61 11 -75 2 -14 6 -41 9 -60 3 -19 15 -89 27
-155 11 -66 22 -129 24 -140 62 -357 203 -883 360 -1346 56 -164 154 -425 186
-496 10 -24 19 -45 19 -48 0 -3 41 -99 91 -213 105 -238 283 -599 389 -787 40
-72 84 -150 98 -175 101 -181 347 -565 490 -765 94 -131 292 -397 301 -405 4
-3 22 -25 41 -50 39 -52 209 -258 231 -280 8 -8 27 -31 43 -50 164 -202 608
-652 887 -901 104 -93 204 -179 271 -233 l48 -38 622 621 c529 530 619 624
607 636 -8 7 -57 47 -109 89 -52 41 -102 82 -110 89 -8 8 -51 45 -95 83 -44
37 -85 73 -91 79 -6 5 -53 48 -104 95 -201 182 -477 467 -645 664 -27 32 -58
68 -69 80 -226 256 -579 755 -793 1121 -116 198 -309 563 -301 570 3 3 139 83
218 128 19 10 109 62 200 115 91 52 180 104 198 114 18 10 104 59 190 109 86
50 229 133 317 184 88 51 252 145 365 210 113 64 225 130 250 145 25 15 65 39
90 53 50 27 396 227 478 276 29 17 55 31 58 31 3 0 18 8 32 19 15 10 47 29 72
43 45 25 228 131 565 326 99 58 200 116 225 130 25 14 115 66 200 115 85 49
288 166 450 260 162 93 312 181 332 193 21 13 40 24 43 24 2 0 50 27 105 60
55 33 103 60 105 60 3 0 33 17 67 38 35 21 83 50 108 64 25 14 133 76 240 138
237 138 293 170 300 170 3 0 4 -2047 4 -4548 l-1 -4548 72 -17 c82 -19 432
-85 485 -92 19 -3 49 -7 65 -9 17 -2 53 -7 80 -11 28 -4 59 -9 70 -11 11 -2
49 -6 84 -10 36 -3 68 -7 71 -9 3 -2 43 -7 88 -10 45 -3 90 -8 99 -9 10 -2 63
-7 118 -11 55 -4 118 -9 140 -11 22 -2 99 -6 170 -9 72 -4 147 -8 168 -9 l37
-3 1 41 c0 23 0 4437 1 9811 l0 9770 -127 0 c-70 0 -127 -1 -128 -2z m-1496
-2020 c3 -72 1 -6265 -2 -6267 -2 -2 -93 -55 -202 -117 -109 -63 -213 -122
-230 -133 -18 -10 -108 -62 -202 -115 -192 -110 -985 -566 -1175 -676 -69 -40
-217 -125 -330 -190 -113 -65 -218 -126 -235 -136 -16 -10 -52 -30 -80 -45
-27 -14 -62 -35 -77 -45 -14 -11 -28 -19 -31 -19 -3 0 -60 -32 -128 -72 -180
-104 -239 -137 -289 -166 -25 -14 -85 -49 -135 -77 -49 -29 -256 -148 -458
-264 -203 -117 -383 -221 -400 -231 -18 -10 -48 -27 -67 -38 -40 -22 -348
-198 -370 -212 -8 -5 -132 -76 -275 -158 -143 -83 -348 -200 -455 -262 -608
-351 -655 -377 -662 -366 -6 11 -36 147 -44 201 -3 17 -9 48 -14 70 -9 40 -39
227 -60 380 -6 44 -13 91 -15 105 -2 14 -6 54 -10 90 -3 36 -8 81 -10 100 -27
237 -38 471 -39 820 0 261 7 538 18 640 2 19 7 75 11 124 4 49 8 97 10 106 2
10 6 49 9 87 4 37 8 75 11 83 2 8 6 40 10 71 3 31 7 65 9 75 2 11 7 39 10 64
3 25 8 56 11 70 2 13 7 42 10 65 5 30 66 342 90 455 11 53 91 360 112 430 35
118 142 451 153 475 5 11 18 47 30 80 11 33 23 67 27 75 3 8 7 20 9 25 7 27
137 334 196 465 99 216 299 601 350 673 11 15 17 27 14 27 -3 0 10 22 27 50
18 27 46 72 62 100 17 28 67 108 113 177 45 70 82 130 82 134 0 4 4 9 8 11 4
2 39 48 77 103 179 261 416 556 680 845 87 95 396 402 500 497 923 838 2009
1445 3205 1792 160 47 150 45 151 24z"/>
</g>
</svg>
